<?xml version="1.0" encoding="UTF-8"?>
<svg width="48px" height="19px" viewBox="0 0 48 19" version="1.1" xmlns="http://www.w3.org/2000/svg" xmlns:xlink="http://www.w3.org/1999/xlink">
    <!-- Generator: sketchtool 54.1 (76490) - https://sketchapp.com -->
    <title>EA8A74BB-2FCA-4908-8B83-C210105490B3</title>
    <desc>Created with sketchtool.</desc>
    <g id="Page-1" stroke="none" stroke-width="1" fill="none" fill-rule="evenodd">
        <g id="M:-Logo-apps" transform="translate(-14.000000, -32.000000)">
            <g id="map_logo_apps-copy-3" transform="translate(9.000000, 28.000000)">
                <g id="Group-2" transform="translate(5.958333, 4.333271)">
                    <g id="Group" transform="translate(19.044403, 0.000084)">
                        <path d="M12.9753783,12.7049883 C12.9753783,12.9582175 12.7803291,13.1846588 12.5375639,13.1846588 L8.12237754,13.1846588 C3.48284268,13.1846588 0.837121189,10.4206939 0.837121189,7.01088999 C0.837121189,3.60087681 3.55420726,0.837121189 6.90624974,0.837121189 C10.2585015,0.837121189 12.9753783,3.50690995 12.9753783,8.24543447 L12.9753783,12.7049883 Z M13.6930009,6.57495937 C13.6670502,6.39728039 13.6375417,6.22190349 13.6032197,6.04987508 C12.878482,2.39898015 10.326518,-9.62193288e-16 6.90625,-9.62193288e-16 C4.12261269,-9.62193288e-16 1.72007481,1.68135798 0.627840909,4.09561559 C0.579287879,4.20360422 0.533036932,4.31305782 0.489506629,4.42397639 C0.174958333,5.22489212 0,6.09738171 0,7.01089025 C0,8.06922075 0.221,9.04467626 0.627840909,9.91151528 C1.80880966,12.426646 4.56586837,14.0217805 8.12237784,14.0217805 L12.5375644,14.0217805 C12.9831222,14.0217805 13.3753134,13.7842473 13.6032197,13.4257502 C13.7352756,13.2185627 13.8125,12.9709841 13.8125,12.7049888 L13.8125,8.24543477 C13.8125,7.66656544 13.7710625,7.10904271 13.6930009,6.57495937 L13.6930009,6.57495937 Z" id="Fill-13" fill="#FEF4EE"></path>
                        <path d="M4.61255866,7.01088999 C4.61255866,5.72235119 5.63949716,4.67762395 6.90627089,4.67762395 C8.17304462,4.67762395 9.20019239,5.72235119 9.20019239,7.01088999 C9.20019239,8.29942878 8.17304462,9.34415603 6.90627089,9.34415603 C5.63949716,9.34415603 4.61255866,8.29942878 4.61255866,7.01088999 M6.90627066,0.837121189 C3.55422818,0.837121189 0.83714211,3.60087681 0.83714211,7.01088999 C0.83714211,10.4206939 3.4828636,13.1846588 8.12239846,13.1846588 L12.5375848,13.1846588 C12.78035,13.1846588 12.9753992,12.9582175 12.9753992,12.7049883 L12.9753992,8.24543447 C12.9753992,3.50690995 10.2585224,0.837121189 6.90627066,0.837121189" id="Fill-15" fill="#FF7201"></path>
                        <path d="M6.90624981,8.50711878 C6.10303202,8.50711878 5.44944965,7.83595682 5.44944965,7.01097384 C5.44944965,6.18578157 6.10303202,5.51461961 6.90624981,5.51461961 C7.70946759,5.51461961 8.36304996,6.18578157 8.36304996,7.01097384 C8.36304996,7.83595682 7.70946759,8.50711878 6.90624981,8.50711878 M6.90624997,4.67749842 C5.63947623,4.67749842 4.61253774,5.72222565 4.61253774,7.01097371 C4.61253774,8.29951248 5.63947623,9.34423971 6.90624997,9.34423971 C8.1730237,9.34423971 9.20017147,8.29951248 9.20017147,7.01097371 C9.20017147,5.72222565 8.1730237,4.67749842 6.90624997,4.67749842" id="Fill-17" fill="#FEF4EE"></path>
                    </g>
                    <g id="m" opacity="0.25" transform="translate(0.000000, -0.000000)">
                        <path d="M18.8351222,12.521554 C18.8351222,12.7737367 18.6279347,12.9754829 18.3680086,12.9754829 L15.1513704,12.9754829 C14.8924907,12.9754829 14.6840475,12.7737367 14.6840475,12.521554 L14.6840475,6.14415555 C14.6840475,5.58956277 14.6061952,5.10926449 14.3977521,4.75537151 C14.1905646,4.40210637 13.8517398,4.17524653 13.3316782,4.17524653 C12.6284964,4.17524653 12.1862871,4.52830239 11.9527303,5.10926449 C11.8221394,5.43699743 11.7706565,5.86685916 11.7706565,6.24628433 L11.7706565,12.521554 C11.7706565,12.7737367 11.5655618,12.9754829 11.309612,12.9754829 L8.08041697,12.9754829 C7.82488572,12.9754829 7.61958175,12.7737367 7.61958175,12.521554 L7.61958175,6.24628433 C7.61958175,5.86685916 7.5722844,5.43699743 7.45320391,5.10926449 C7.23973801,4.52830239 6.83750127,4.17524653 6.22075223,4.17524653 C5.74610451,4.17524653 5.43867176,4.40210637 5.24822668,4.75537151 C5.05882801,5.10926449 4.98830055,5.58956277 4.98830055,6.14415555 L4.98830055,12.521554 C4.98830055,12.7737367 4.78299658,12.9754829 4.52725605,12.9754829 L1.29806105,12.9754829 C1.04232052,12.9754829 0.837016548,12.7737367 0.837016548,12.521554 L0.837016548,6.14415555 C0.837016548,4.62917549 1.14444931,3.47750603 1.70866899,2.65587159 C2.57906575,1.40960744 4.04005152,0.837225829 5.88925224,0.837225829 C6.93230525,0.837225829 7.77340277,1.01155631 8.54146146,1.40960744 C8.97718305,1.63458375 9.38779099,1.983454 9.69501447,2.35660077 C10.0024472,1.983454 10.4120088,1.63458375 10.8477304,1.40960744 C11.6423676,1.01155631 12.6284964,0.837225829 13.6956167,0.837225829 C15.6440162,0.837225829 17.1227908,1.40960744 17.9795844,2.68014811 C18.5500825,3.50261967 18.8351222,4.65428913 18.8351222,6.14415555 L18.8351222,12.521554 Z M19.044402,7.01099479 C19.044402,6.09748627 19.2193604,5.22499669 19.5339086,4.42408097 C19.4001785,3.66941619 19.1657846,3.02399574 18.8351217,2.47149574 C18.7828017,2.38380729 18.7311094,2.29507244 18.6737666,2.21198816 C17.6836616,0.744305398 16.0090007,0.000104640148 13.6958256,0.000104640148 C12.4324004,0.000104640148 11.3481192,0.222569602 10.46391,0.666034564 C10.1997983,0.802066761 9.9394536,0.976397254 9.69501422,1.17835275 C9.45057483,0.976606534 9.19064871,0.802694602 8.92695554,0.666662405 C8.04944327,0.211896307 7.08445184,0.000104640148 5.88925209,0.000104640148 C3.69997094,0.000104640148 2.0171481,0.75267661 1.01846255,2.18227036 C0.34290576,3.16651562 -0.000104640148,4.49942187 -0.000104640148,6.14415578 L-0.000104640148,12.5215545 C-0.000104640148,13.2328982 0.581485294,13.8117675 1.29680534,13.8126046 L4.5287209,13.8126046 C5.24383166,13.8117675 5.8254216,13.2328982 5.8254216,12.5215545 L5.8254216,6.14415578 C5.8254216,5.57114631 5.91290076,5.2875715 5.98489318,5.15300426 C6.04725871,5.03727225 6.08911477,5.0123679 6.22075207,5.0123679 C6.34945945,5.0123679 6.52567346,5.0123679 6.66630981,5.39430445 C6.73893008,5.59500426 6.7822511,5.91352888 6.7822511,6.24628456 L6.7822511,12.5215545 C6.7822511,13.2328982 7.36384103,13.8117675 8.07916107,13.8126046 L11.3110766,13.8126046 C12.0263967,13.8117675 12.6077773,13.2328982 12.6077773,12.5215545 L12.6077773,6.24628456 C12.6077773,5.92106297 12.6536097,5.61174669 12.7295785,5.42151089 C12.850961,5.11951941 13.0083398,5.0123679 13.3316779,5.0123679 C13.5593748,5.0123679 13.6223682,5.08791809 13.6767811,5.1802107 C13.7544241,5.31226657 13.8471352,5.58663305 13.8471352,6.14415578 L13.8471352,12.5215545 C13.8471352,13.2328982 14.4314458,13.8117675 15.1501143,13.8126046 L18.3690545,13.8126046 C18.5335488,13.8123954 18.6902998,13.780794 18.8351217,13.725544 C19.3240005,13.538866 19.6722429,13.0702874 19.6722429,12.5215545 L19.6722429,9.91161979 C19.265402,9.04478078 19.044402,8.06932528 19.044402,7.01099479 L19.044402,7.01099479 Z" id="Fill-10" fill="#FEF4EE"></path>
                        <path d="M17.9796053,2.68006439 C17.1228118,1.409733 15.6440372,0.83714211 13.6956376,0.83714211 C12.6285174,0.83714211 11.6423886,1.0114726 10.8477513,1.409733 C10.4120297,1.63470931 10.0024682,1.98337029 9.69503542,2.35651705 C9.38781195,1.98337029 8.977204,1.63470931 8.54148242,1.409733 C7.77321444,1.0114726 6.9323262,0.83714211 5.88927319,0.83714211 C4.04007247,0.83714211 2.57908671,1.409733 1.70868995,2.65599715 C1.14447026,3.47763159 0.837037504,4.62909177 0.837037504,6.14428111 L0.837037504,12.5214703 C0.837037504,12.773653 1.04234148,12.9753992 1.298082,12.9753992 L4.52727701,12.9753992 C4.78301753,12.9753992 4.98832151,12.773653 4.98832151,12.5214703 L4.98832151,6.14428111 C4.98832151,5.58947905 5.05884897,5.10918077 5.24824764,4.75528779 C5.43869271,4.40223193 5.74612547,4.17537209 6.22056391,4.17537209 C6.83752223,4.17537209 7.23975896,4.52821867 7.45322487,5.10918077 C7.57230536,5.43712299 7.6196027,5.86698472 7.6196027,6.24620061 L7.6196027,12.5214703 C7.6196027,12.773653 7.82490668,12.9753992 8.08043792,12.9753992 L11.3096329,12.9753992 C11.5655827,12.9753992 11.7706774,12.773653 11.7706774,12.5214703 L11.7706774,6.24620061 C11.7706774,5.86698472 11.8221604,5.43712299 11.9527513,5.10918077 C12.1863081,4.52821867 12.6285174,4.17537209 13.3316992,4.17537209 C13.8515514,4.17537209 14.1905855,4.40223193 14.397773,4.75528779 C14.6062162,5.10918077 14.6840685,5.58947905 14.6840685,6.14428111 L14.6840685,12.5214703 C14.6840685,12.773653 14.8925116,12.9753992 15.1513914,12.9753992 L18.3678203,12.9753992 C18.6279557,12.9753992 18.8351432,12.773653 18.8351432,12.5214703 L18.8351432,6.14428111 C18.8351432,4.65441469 18.5501034,3.50274523 17.9796053,2.68006439" id="Fill-5" fill="#020303"></path>
                    </g>
                    <g id="p" opacity="0.25" transform="translate(32.647707, 0.000021)">
                        <path d="M6.90616612,8.3827227 C6.10294834,8.3827227 5.44936597,7.72683821 5.44936597,6.92069046 C5.44936597,6.11433343 6.10294834,5.45844895 6.90616612,5.45844895 C7.7093839,5.45844895 8.36296627,6.11433343 8.36296627,6.92069046 C8.36296627,7.72683821 7.7093839,8.3827227 6.90616612,8.3827227 M6.90616628,4.62132776 C5.63939255,4.62132776 4.61245406,5.65077752 4.61245406,6.92069033 C4.61245406,8.19018459 5.63939255,9.21984363 6.90616628,9.21984363 C8.17294001,9.21984363 9.20008779,8.19018459 9.20008779,6.92069033 C9.20008779,5.65077752 8.17294001,4.62132776 6.90616628,4.62132776" id="Fill-1" fill="#FEF4EE"></path>
                        <path d="M6.90616628,4.62141144 C8.17294001,4.62141144 9.20008779,5.6508612 9.20008779,6.92056474 C9.20008779,8.19026827 8.17294001,9.21992731 6.90616628,9.21992731 C5.63939255,9.21992731 4.61245406,8.19026827 4.61245406,6.92056474 C4.61245406,5.6508612 5.63939255,4.62141144 6.90616628,4.62141144 M6.90616606,0.837204911 C3.49217661,0.848506047 0.928911553,2.95595863 0.839548867,7.9219708 C0.837874625,7.94185242 0.837037504,7.96257117 0.837037504,7.98433632 L0.837037504,17.1313503 C0.837037504,17.3810216 1.02706401,17.5796286 1.26355074,17.5796286 L4.24935271,17.5796286 C4.48604873,17.5796286 4.67586595,17.3810216 4.67586595,17.1313503 L4.67586595,13.0041335 L5.69024754,13.0041335 C10.3297824,13.0041335 12.9752946,10.2805597 12.9752946,6.92056458 C12.9752946,3.56077869 10.3816839,0.825694495 6.90616606,0.837204911" id="Fill-3" fill="#020303"></path>
                        <path d="M4.67574036,13.00405 L4.67574036,17.1314761 C4.67574036,17.3809382 4.48592313,17.5795452 4.24922712,17.5795452 L1.26363443,17.5795452 C1.0271477,17.5795452 0.837121189,17.3809382 0.837121189,17.1314761 L0.837121189,7.98446202 C0.837121189,7.96248759 0.83774903,7.94197812 0.839423272,7.92188721 C0.928995238,2.95587498 3.49205101,0.848422355 6.90624974,0.837121218 C10.3817676,0.825820082 12.9753783,3.56069504 12.9753783,6.92069026 C12.9753783,10.2804762 10.3298661,13.00405 5.69033123,13.00405 L4.67574036,13.00405 Z M6.92780587,-1.92438658e-15 L6.90373864,-1.92438658e-15 C3.56655492,0.0110918561 1.30444413,1.75355966 0.418560606,4.87999811 C0.26955303,5.40633807 0.159262311,5.97160417 0.0895719697,6.57495928 C0.135054016,6.88613939 0.105196693,9.43817317 0,14.2310606 L0,17.1314763 C0,17.8396809 0.56610322,18.4158295 1.26216951,18.4166667 L4.25048295,18.4166667 C4.94675852,18.4158295 5.51265246,17.8396809 5.51265246,17.1314763 L5.51265246,13.8411714 L5.69054072,13.8411714 C10.4725956,13.8411714 13.8125,10.9951686 13.8125,6.92069034 C13.8125,5.03214489 13.0946686,3.2767017 11.7910616,1.97748958 C10.5113125,0.701716856 8.78475,-1.92438658e-15 6.92780587,-1.92438658e-15 Z" id="Fill-7" fill="#FEF4EE"></path>
                    </g>
                </g>
            </g>
        </g>
    </g>
</svg>